<svg xmlns="http://www.w3.org/2000/svg" viewBox="0 0 64 64" width="64" height="64" role="img" aria-label="BrushBeats compact favicon">
	<defs>
		<filter id="compact-shadow" x="-20%" y="-20%" width="140%" height="140%">
			<feDropShadow dx="0" dy="1.2" stdDeviation="1.1" flood-color="#6b7d79" flood-opacity="0.12" />
		</filter>
	</defs>

	<path
		d="M11.5 11.7c3.4-2.9 8.2-4.5 13.1-4.5 3.2 0 6.4.7 9.1 2 2.7-1.3 5.9-2 9.3-2 5.3 0 10.2 1.7 13.6 4.7 1.4 1.3 2.2 3.1 2.2 5.1 0 3.3-.6 6.2-1.8 8.8-1.3 2.9-3 5.3-4.6 7.7-1.6 2.4-2.6 5-3 8l-.5 4c-.3 2.8-2.7 4.9-5.5 4.9-2.3 0-4.4-1.4-5.3-3.6l-1.6-4c-.4-1-1.3-1.6-2.4-1.6s-1.9.6-2.4 1.6l-1.6 4c-.9 2.2-3 3.6-5.3 3.6-2.9 0-5.2-2.1-5.5-4.9l-.5-4c-.4-3-1.4-5.6-3-8-1.6-2.3-3.3-4.8-4.6-7.7-1.2-2.7-1.8-5.6-1.8-8.8 0-2 .8-3.8 2.3-5.1z"
		fill="#fffdfa"
		filter="url(#compact-shadow)"
		transform="translate(-2.1 -2.1) scale(1.065)"
	/>
</svg>