<svg xmlns="http://www.w3.org/2000/svg" viewBox="0 0 64 64" width="64" height="64" role="img" aria-label="BrushBeats compact favicon">
	<defs>
		<linearGradient id="compact-bg" x1="0" y1="0" x2="1" y2="1">
			<stop offset="0%" stop-color="#bfead9" />
			<stop offset="100%" stop-color="#92d4c0" />
		</linearGradient>
		<filter id="compact-shadow" x="-20%" y="-20%" width="140%" height="140%">
			<feDropShadow dx="0" dy="2" stdDeviation="1.8" flood-color="#5b9a87" flood-opacity="0.2" />
		</filter>
	</defs>

	<rect x="2" y="2" width="60" height="60" rx="16" fill="url(#compact-bg)" />

	<path
		d="M14 13.5c2.8-2.3 6.8-3.5 10.8-3.5 2.9 0 5.8.6 8.2 1.8 2.3-1.2 5-1.8 8-1.8 4.4 0 8.4 1.4 11.4 3.9 1.3 1.1 2 2.7 2 4.4 0 2.8-.5 5.3-1.5 7.5-1.1 2.5-2.7 4.8-4 6.7-1.5 2.1-2.4 4.5-2.7 7.1l-.4 3.2c-.3 2.4-2.4 4.2-4.9 4.2-2 0-3.9-1.2-4.7-3.1l-1.4-3.5c-.4-.9-1.2-1.4-2.1-1.4-.9 0-1.7.5-2.1 1.4l-1.4 3.5c-.8 1.9-2.7 3.1-4.7 3.1-2.5 0-4.6-1.8-4.9-4.2l-.4-3.2c-.3-2.6-1.2-5-2.7-7.1-1.4-1.9-2.9-4.2-4-6.7-1-2.3-1.5-4.8-1.5-7.5 0-1.7.7-3.3 2-4.4z"
		fill="#fffdf7"
		filter="url(#compact-shadow)"
	/>

	<g fill="#76ad99">
		<circle cx="19" cy="42" r="8.4" />
		<rect x="18.1" y="14.5" width="4.8" height="28.8" rx="2.4" />
		<path d="M22.9 21c7.7 1.1 11.1 5.6 11.1 10.6 0 2.9-1.1 5.4-3.2 7.2-1.2 1.1-3.1.2-3.1-1.5v-4.8c0-2.8-2.1-5.1-4.8-5.8z" />
		<rect x="13.8" y="39.2" width="2.2" height="6.4" rx="0.8" fill="#fffdf7" />
		<path d="M18.6 39.8h6.2v1.9h-6.2z" fill="#fffdf7" />
		<path d="M18.6 42.6h5.8v1.9h-5.8z" fill="#fffdf7" />
		<path d="M18.6 45.4h5.4v1.9h-5.4z" fill="#fffdf7" />
	</g>

	<path
		d="M35.8 30.8c1.8-2 3.1-1.3 4 .6 1.5 3.4 2.7 4.1 4.1-.8 1.4-5 3.2-8.3 5.3-8.3 2.1 0 3 2.8 3.2 6.4.2 2.6.9 4.9 2.2 4.9 1.3 0 2-2.3 2.7-4.5.7-2.5 1.7-4.8 3.7-4.8"
		fill="none"
		stroke="#ffa24a"
		stroke-width="4.6"
		stroke-linecap="round"
		stroke-linejoin="round"
		filter="url(#compact-shadow)"
	/>
</svg>