<svg xmlns="http://www.w3.org/2000/svg" viewBox="0 0 64 64" width="64" height="64" role="img" aria-label="BrushBeats compact favicon">
	<defs>
		<linearGradient id="compact-bg" x1="0" y1="0" x2="1" y2="1">
			<stop offset="0%" stop-color="#c8eee0" />
			<stop offset="100%" stop-color="#9fd8c6" />
		</linearGradient>
		<filter id="compact-shadow" x="-20%" y="-20%" width="140%" height="140%">
			<feDropShadow dx="0" dy="2" stdDeviation="1.6" flood-color="#6ca391" flood-opacity="0.2" />
		</filter>
	</defs>

	<rect x="2" y="2" width="60" height="60" rx="16" fill="url(#compact-bg)" />

	<path
		d="M12.5 12c3.1-2.7 7.6-4.2 12.3-4.2 2.9 0 5.9.6 8.4 1.8 2.4-1.2 5.2-1.8 8.2-1.8 5 0 9.7 1.6 13 4.5 1.4 1.2 2.1 2.9 2.1 4.8 0 3-.6 5.8-1.7 8.3-1.2 2.7-2.8 5-4.3 7.2-1.5 2.3-2.5 4.7-2.8 7.5l-.4 3.7c-.3 2.6-2.5 4.6-5.2 4.6-2.2 0-4.1-1.3-4.9-3.4l-1.6-3.8c-.4-.9-1.2-1.5-2.2-1.5s-1.8.6-2.2 1.5l-1.6 3.8c-.9 2-2.8 3.4-4.9 3.4-2.7 0-4.9-2-5.2-4.6l-.4-3.7c-.3-2.8-1.2-5.2-2.8-7.5-1.5-2.2-3.1-4.5-4.3-7.2-1.1-2.5-1.7-5.3-1.7-8.3 0-1.9.8-3.6 2.2-4.8z"
		fill="#fffdfa"
		filter="url(#compact-shadow)"
	/>

	<g fill="#78af9b" filter="url(#compact-shadow)">
		<circle cx="24" cy="39.5" r="9.2" />
		<rect x="22.2" y="15.2" width="5.4" height="25.2" rx="2.7" />
		<path d="M27.6 21c7.8.8 11.5 5.5 11.5 10.8 0 2.8-1.1 5.3-3 7.1-1.3 1.2-3.4.3-3.4-1.5v-5.1c0-3-2.2-5.4-5.1-6.3z" />
		<rect x="18.4" y="37.1" width="2.6" height="7" rx="0.8" fill="#fffdfa" />
		<path d="M24 36.9h6.8v2.1H24z" fill="#fffdfa" />
		<path d="M24 39.8h6.4v2.1H24z" fill="#fffdfa" />
		<path d="M24 42.7h6v2.1h-6z" fill="#fffdfa" />
	</g>
</svg>