<svg xmlns="http://www.w3.org/2000/svg" viewBox="0 0 64 64" width="64" height="64" role="img" aria-label="BrushBeats favicon">
	<defs>
		<linearGradient id="bg" x1="0" y1="0" x2="1" y2="1">
			<stop offset="0%" stop-color="#c7efe2" />
			<stop offset="100%" stop-color="#a9dfd0" />
		</linearGradient>
		<linearGradient id="tooth" x1="0" y1="0" x2="0" y2="1">
			<stop offset="0%" stop-color="#fffef9" />
			<stop offset="100%" stop-color="#f2fbf8" />
		</linearGradient>
		<filter id="soft-shadow" x="-20%" y="-20%" width="140%" height="140%">
			<feDropShadow dx="0" dy="2.2" stdDeviation="2" flood-color="#6ba795" flood-opacity="0.22" />
		</filter>
	</defs>

	<rect x="2" y="2" width="60" height="60" rx="15" fill="url(#bg)" />

	<path
		d="M16.5 12.5c3.2-2.2 7.3-3.5 11.5-3.5 2.6 0 5.2.5 7.6 1.4 2.1-.9 4.5-1.4 7-1.4 4.8 0 9.1 1.5 12.2 4 1.2.9 1.8 2.4 1.8 3.9 0 2.8-.5 5.3-1.5 7.4-1.3 2.9-2.8 5.2-4.2 7.3-1.4 2-2.2 4.2-2.5 6.6l-.5 4.5c-.3 2.6-2.4 4.5-5 4.5-2.1 0-3.9-1.3-4.7-3.2l-1.7-4.2c-.3-.9-1.2-1.5-2.1-1.5-.9 0-1.7.5-2.1 1.4l-1.9 4.5c-.8 1.9-2.6 3.1-4.7 3.1-2.6 0-4.7-1.9-5-4.4l-.6-4.6c-.3-2.4-1.1-4.6-2.5-6.6-1.4-2-2.9-4.4-4.1-7.3-.9-2.2-1.4-4.6-1.4-7.4 0-1.5.7-2.9 1.8-3.8z"
		fill="url(#tooth)"
		filter="url(#soft-shadow)"
	/>

	<g fill="#7bb39f">
		<circle cx="18" cy="41.5" r="7.6" />
		<rect x="17" y="15" width="4.6" height="27.8" rx="2.3" />
		<path d="M21.6 20.7c7.7 1 10.5 5.2 10.5 10.1 0 2.6-1 4.8-2.7 6.6-1.2 1.3-3.4.5-3.4-1.3v-5.1c0-2.5-1.8-4.8-4.4-5.7z" />
		<rect x="12.8" y="38.9" width="2.1" height="6" rx="0.7" fill="#fffef9" />
		<path d="M17.8 39.5h6.1v1.9h-6.1z" fill="#fffef9" />
		<path d="M17.8 42.1h5.8v1.9h-5.8z" fill="#fffef9" />
		<path d="M17.8 44.7h5.5v1.9h-5.5z" fill="#fffef9" />
	</g>

	<path
		d="M34 30.8c2-1.8 3.7-.4 4.5 1.4 1.1 2.6 2.4 2.8 3.7-1.2 1.2-3.9 3.1-6.5 5-6.5 1.8 0 2.5 2.2 2.7 5.4.2 3 1.1 5.8 2.8 5.8 1.8 0 2.6-2.8 3.3-5.5.8-3.1 2-5.3 4-5.3 1.4 0 2.5.9 2.8 2.5"
		fill="none"
		stroke="#ffa24a"
		stroke-width="4"
		stroke-linecap="round"
		stroke-linejoin="round"
		filter="url(#soft-shadow)"
	/>
</svg>