<svg xmlns="http://www.w3.org/2000/svg" viewBox="0 0 64 64" width="64" height="64" role="img" aria-label="BrushBeats tooth music icon">
	<defs>
		<linearGradient id="bg" x1="0" y1="0" x2="1" y2="1">
			<stop offset="0%" stop-color="#b8dbe5" />
			<stop offset="100%" stop-color="#fff9ef" />
		</linearGradient>
		<linearGradient id="tooth" x1="0" y1="0" x2="0" y2="1">
			<stop offset="0%" stop-color="#ffffff" />
			<stop offset="100%" stop-color="#eef6ff" />
		</linearGradient>
	</defs>

	<rect x="2" y="2" width="60" height="60" rx="16" fill="url(#bg)" />

	<path
		d="M32 13c-7.2 0-13.4 3.5-13.4 10.2 0 6.6 2.5 10.1 4.3 12.6 1.6 2.2 2.6 3.6 2.6 5.9 0 4.2 1.7 8.3 5.1 8.3 2.2 0 2.9-2.1 3.4-4.1.5-2 .8-3.7 2-3.7s1.5 1.7 2 3.7c.5 2 1.2 4.1 3.4 4.1 3.4 0 5.1-4.1 5.1-8.3 0-2.3 1-3.7 2.6-5.9 1.8-2.5 4.3-6 4.3-12.6C45.4 16.5 39.2 13 32 13z"
		fill="url(#tooth)"
		stroke="#102125"
		stroke-width="2.2"
		stroke-linejoin="round"
	/>

	<path d="M42.5 17.5v11" stroke="#ea7f33" stroke-width="3" stroke-linecap="round" />
	<path d="M42.5 17.5c5.2 0 8.5 2.8 8.5 7" fill="none" stroke="#ea7f33" stroke-width="3" stroke-linecap="round" />
	<circle cx="51" cy="25" r="2.1" fill="#ea7f33" />

	<path d="M17 19l1.7 3.8L23 24.5l-3.6 1.9-1.7 3.8-1.7-3.8-3.6-1.9 4.3-1.7z" fill="#ca5f16" />
</svg>